<?xml version="1.0" encoding="UTF-8"?>
<svg width="248px" height="48px" viewBox="0 0 248 48" version="1.1" xmlns="http://www.w3.org/2000/svg" xmlns:xlink="http://www.w3.org/1999/xlink">
    <!-- Generator: Sketch 60 (88103) - https://sketch.com -->
    <title>sig</title>
    <desc>Created with Sketch.</desc>
    <g id="Page-1" stroke="none" stroke-width="1" fill="none" fill-rule="evenodd">
        <g id="sig">
            <path d="M45.758,11.567 C43.864,10.991 41.954,11.674 40.069,11.567 C32.676,11.722 25.544,13.812 18.241,14.713 C16.174,14.964 14.189,16.022 12.198,16.788 C10.228,17.521 8.375,18.01 5.931,18.01 C5.18,18.501 4.47,18.01 4.47,17.119 C4.265,16.06 4.47,15.573 5.446,15.128 C11.5,13.622 17.169,11.666 23.512,11.184 C27.274,10.84 30.901,9.752 34.646,9.428 C39.218,9.232 43.533,8.253 48.415,9.2 C48.984,9.2 49.392,9.2 49.879,9.689 C51.312,10.668 51.347,11.638 49.879,12.55 C47.863,14.6 44.997,15.088 42.557,16.385 C38.768,18.01 34.743,18.99 30.349,20.452 C32.477,20.942 34.596,20.381 36.696,20.282 C43.474,19.945 50.239,19.255 57.036,19.01 C60.199,18.902 63.341,18.323 66.498,18.054 C71.719,17.613 76.913,16.923 82.143,16.561 C86.756,16.248 91.334,15.503 95.933,14.968 C97.665,14.763 99.408,14.603 101.154,14.426 C108.485,13.686 115.691,12.088 122.973,10.974 C127.414,10.296 131.878,9.708 136.311,8.958 C142.16,7.96 148.049,7.238 153.853,6.023 C156.439,5.481 159.069,5.064 161.702,4.847 C166.111,4.479 170.355,3.173 174.749,2.737 C176.732,2.534 178.743,2.369 180.727,2.14 C183.654,1.804 186.575,1.329 189.508,0.918 C191.027,0.707 192.572,0.915 194.087,0.611 C192.122,1.556 190.005,2.017 187.881,2.074 C182.272,2.78 176.778,4.089 171.218,5.083 C166.346,5.951 161.522,7.093 156.628,7.778 C153.047,8.287 149.607,9.392 146.026,9.734 C140.578,10.421 135.127,11.128 129.729,12.125 C124.01,13.177 118.265,14.121 112.517,14.987 C105.1,16.101 97.698,17.299 90.227,17.919 C82.559,18.706 74.889,19.442 67.226,20.225 C62.668,20.693 58.115,21.108 53.557,21.559 C52.07,21.707 51.558,22.277 51.602,23.996 C51.719,28.439 51.45,32.894 51.222,37.335 C51.073,40.247 50.974,43.144 50.597,46.03 C50.554,46.518 51.086,46.891 50.385,47.007 C49.951,47.064 49.716,46.652 49.58,46.271 C48.826,44.058 48.7,41.722 48.583,39.443 C48.375,35.211 49.016,30.982 48.288,26.72 C47.466,21.958 47.604,21.854 42.746,22.499 C41.907,22.888 41.089,22.888 40.112,23.025 C38.823,23.379 26.446,24.349 22.538,24.841 C18.846,24.841 15.212,25.816 11.309,26.23 C9.234,26.304 6.914,26.79 4.964,26.959 C4.051,26.793 3.006,27.287 2.032,27.287 C1.336,26.789 0.564,26.789 0.564,25.701 C0.468,24.844 1.052,23.867 2.032,23.667 C4.741,23.381 7.401,22.893 9.845,22.893 C13.633,22.673 17.143,21.241 20.83,20.622 C26.086,19.473 31.328,17.52 36.21,16.301 C39.567,15.34 42.692,13.565 45.921,12.161 C45.848,12.148 45.976,11.662 45.976,11.565 L45.758,11.565 L45.758,11.567 Z" id="Path" fill="#010101" fill-rule="nonzero"></path>
            <path d="M210.146,38.447 C209.399,35.517 209.212,32.439 208.81,29.424 C208.68,28.49 208.755,27.406 209.64,27.061 C210.501,26.727 211.129,27.469 211.652,28.426 C212.377,29.856 213.178,29.332 213.461,28.242 C214.664,25.82 216.357,23.768 218.376,22.048 C219.797,20.834 221.38,19.629 223.467,20.332 C225.261,20.735 226.526,23.118 226.646,25.496 C226.671,28.27 226.104,30.923 224.526,33.229 C223.499,34.756 224.118,35.202 225.615,35.625 C229.602,36.418 240.953454,39.919 245.403454,40.891 C252.486454,42.522 236.302,42.111 227.558,40.891 C225.268,40.577 223.037,39.823 220.769,39.28 C219.779,39.032 218.975,38.598 218.775,37.43 C218.588,36.295 218.962,35.444 219.757,34.643 C221.613,32.813 223.132,30.741 223.941,28.233 C224.016,27.985 224.178,27.737 224.17,27.511 C224.179,26.388 224.265,25.023 223.282,24.468 C222.261,23.903 221.307,24.931 220.642,25.67 C216.434,30.436 213.822,35.824 214.412,42.572 C214.451,43.072 214.433,43.072 214.462,43.556 C213.871,43.072 213.586,43.079 213.603,43.327 L213.789,43.327 C210.481,43.193 210.631,40.394 210.146,38.447 Z" id="Path" fill="#010101" fill-rule="nonzero"></path>
            <path d="M83.889,45.553 C83.562,46.528 84.377,48.102 83.184,47.994 C81.901,47.916 81.436,46.295 81.096,45.047 C80.462,42.692 79.875,40.317 79.264,37.953 C79.217,37.771 79.088,37.621 78.864,37.197 C77.946,38.984 77.074,40.593 76.288,42.246 C75.952,42.961 75.555,43.601 75.019,44.178 C73.56,45.782 71.739,45.604 70.936,43.602 C70.247,41.875 69.816,40.061 69.206,38.067 C68.296,39.739 67.487,41.215 66.666,42.733 C66.338,43.34 66.064,44.2 65.189,44.19 C64.26,43.983 63.123,43.602 63.22,42.387 C63.459,39.401 61.784,36.561 62.612,33.557 C62.749,33.049 62.378,32.672 62.331,32.245 C62.205,31.183 62.495,30.163 63.734,30.116 C64.885,30.061 65.69,30.602 65.69,32.007 C65.751,32.987 65.69,33.96 65.69,35.427 C66.943,34.173 67.453,32.884 68.184,31.769 C68.599,31.123 68.613,29.736 69.707,30.14 C70.637,30.626 71.658,31.122 71.658,32.579 C71.917,34.534 72.148,36.491 72.636,38.538 C72.727,39.044 72.636,40.005 73.616,40.417 C74.232,39.147 74.814,37.919 75.43,36.708 C76.01,35.571 76.533,34.401 77.323,33.349 C78.885,31.23 79.468,31.148 80.967,33.322 C82.867,36.26 82.921,39.185 83.411,42.601 C83.437,42.859 83.359,43.083 83.899,43.24 C84.21,41.951 84.812,40.676 84.765,39.408 C84.692,37.174 85.934,35.601 86.972,33.914 C88.285,31.807 92.468,31.102 94.906,32.447 C97.417,33.906 98.326,36.84 96.856,39.504 C95.918,41.713 94.38,43.416 92.679,44.873 C89.589,47.312 86.981,47.801 84.053,45.559 L83.892,45.559 L83.892,45.553 L83.889,45.553 Z M87.154,42.623 C87.034,43.588 87.008,44.578 88.616,44.082 C91.092,43.387 94.503,38.816 94.304,36.318 C94.202,35.033 93.429,34.252 92.181,33.839 C90.836,33.403 91.02,34.259 90.942,34.812 C90.923,35.023 90.465,35.328 90.208,35.335 C88.734,35.376 88.547,36.556 88.126,37.538 C87.223,39.493 87.475,40.952 86.987,42.62 L87.153,42.62 L87.153,42.623 L87.154,42.623 Z" id="Shape" fill="#010101" fill-rule="nonzero"></path>
            <path d="M141.009,31.766 C140.464,27.54 138.828,23.696 136.751,20.01 C136.022,18.712 135.117,17.554 133.852,16.728 C133.488,16.494 133.224,16.237 133.462,15.795 C133.659,15.429 134.006,15.218 134.428,15.263 C135.611,15.263 136.866,15.751 137.356,16.645 C140.119,19.574 141.751,22.504 143.218,26.268 C143.726,27.727 144.682,29.198 144.19,30.655 C144.149,31.639 144.683,31.639 145.171,31.1 C146.385,30.368 147.513,29.43 148.813,28.899 C150.99,27.977 153.263,27.29 155.517,26.546 C156.048,26.364 156.783,26.157 156.98,26.841 C157.313,27.612 156.475,27.785 156.039,28.043 C152.28,30.166 148.551,32.324 145.606,35.369 C142.022,35.812 141.861,39.896 139.041,41.42 C134.526,43.881 130.089,42.115 127.592,38.998 C127.157,38.469 126.88,37.437 126.164,37.664 C125.595,37.846 125.018,38.742 124.858,39.398 C124.358,41.537 122.89,43.021 121.574,44.546 C119.832,46.548 116.645,45.591 116.013,42.964 C115.408,40.458 115.169,37.958 115.356,35.318 C115.484,33.464 115.382,31.548 115.484,29.644 C115.59,27.767 117.431,25.891 119.258,26.107 C119.895,26.107 120.725,26.591 120.725,27.166 C120.79,27.663 120.725,28.51 120.056,28.787 C118.028,29.416 118.032,31.439 117.944,32.687 C117.759,35.642 117.765,38.55 118.431,41.615 C118.584,42.101 118.431,42.584 119.411,42.662 C120.097,42.662 120.424,42.338 120.709,41.728 C121.971,38.939 123.229,36.148 124.618,33.429 C125.578,31.533 126.736,31.587 128.164,33.288 C129.163,34.267 129.627,35.726 130.604,37.204 C133.655,40.134 138.902,39.645 140.011,34.526 C140.741,33.641 141.185,32.665 141.185,31.776 L141.014,31.776 L141.014,31.764 L141.009,31.764 L141.009,31.766 Z" id="Path" fill="#010101" fill-rule="nonzero"></path>
            <path d="M163.275,34.098 C164.239,32.641 164.936,31.401 165.812,30.303 C168.635,26.811 170.998,28.397 172.651,31.549 C172.899,32.039 173.136,32.533 173.136,33.237 C173.479,34.212 174.117,34.696 175.576,34.696 C176.941,34.583 175.996,33.61 176.131,33.055 C176.313,32.332 176.131,31.321 177.114,31.186 C178.135,31.061 179.068,31.674 179.551,32.655 C180.248,35.098 181.505,37.54 183.464,39.844 C184.016,37.244 184.467,34.869 185.032,32.559 C185.634,30.147 186.181,27.704 187.902,25.73 C188.442,25.114 188.917,24.564 189.631,25.052 C190.242,25.544 190.605,26.514 190.605,27.059 C188.47,31.635 188.182,36.621 187.322,41.702 C187.114,42.927 186.446,44.165 185.681,45.165 C183.908,45.835 183.171,45.349 182.192,44.573 C180.3,42.507 178.634,40.282 177.262,37.833 C176.979,37.319 176.842,36.183 175.814,36.802 C175.091,37.243 174.606,37.88 175.135,38.919 C175.662,39.89 176.11,40.872 176.11,42.337 C176.319,42.819 176.11,43.773 175.553,43.995 C174.897,44.192 174.583,43.696 174.247,42.997 C173.566,41.573 172.722,40.136 171.614,39.067 C170.63,38.133 169.258,38.903 168.18,39.391 C167.469,39.709 166.769,40.162 166.026,40.192 C164.365,40.243 163.393,40.504 163.755,42.631 C163.962,43.902 162.734,43.442 162.106,43.108 C160.462,42.251 159.732,40.42 159.966,39.018 C160.29,36.985 159.784,35.176 159.576,33.278 C159.459,32.124 159.269,30.778 160.636,30.616 C161.657,30.501 162.577,31.589 162.577,32.764 C162.893,33.143 163.144,33.143 163.144,34.098 L163.275,34.098 L163.275,34.098 Z M168.185,36.072 C168.871,35.605 170.141,36.56 170.51,34.957 C170.624,33.906 170.179,32.889 168.994,32.574 C168.447,32.42 166.58,34.756 166.694,35.504 C166.828,36.565 167.545,36.072 168.028,36.248 L168.185,36.072 Z" id="Shape" fill="#010101" fill-rule="nonzero"></path>
            <path d="M190.54,37.312 C190.116,36.261 190.949,34.841 189.568,33.601 C188.639,32.773 189.702,31.57 190.414,30.74 C191.941,28.986 194.048,28.101 196.081,27.097 C197.749,26.276 199.419,25.461 201.099,24.68 C203.598,23.517 206.43,23.727 208.994,22.777 C209.398,22.628 210.491,22.631 210.465,23.461 C210.55,24.09 209.761,24.347 209.235,24.438 C204.782,25.735 200.7,27.788 196.838,30.334 C196.732,30.4 196.61,30.439 196.493,30.518 C195.215,31.329 193.958,32.635 194.435,33.93 C194.745,34.916 196.51,33.76 197.55,33.409 C199.688,32.692 201.728,31.725 203.827,30.899 C204.416,30.659 205.144,30.393 205.286,31.385 C205.562,32.033 205.112,32.397 204.637,32.821 C202.066,35.116 198.937,36.323 195.817,37.544 C195.634,37.63 195.379,37.571 195.253,37.544 C194.632,38.134 193.401,38.439 193.585,39.433 C193.794,40.396 195.055,40.396 196.025,40.404 C198.077,40.396 200,39.984 201.787,38.908 C202.383,38.545 203.084,38.344 203.718,38.021 C204.156,37.791 204.49,37.599 204.692,38.154 C205.073,38.64 204.692,39.072 204.415,39.615 C202.363,41.51 200.233,43.195 197.328,43.638 C195.891,43.847 194.486,43.906 193.125,43.45 C190.729,42.423 190.503,41.936 190.503,37.311 L190.543,37.311 L190.543,37.312 L190.54,37.312 Z" id="Path" fill="#010101" fill-rule="nonzero"></path>
            <path d="M150.433,46.33 C146.286,46.248 143.723,42.527 144.801,39.18 C145.058,38.389 145.338,37.598 145.668,36.834 C146.429,35.1 147.99,34.756 149.259,36.148 C149.794,36.634 150.232,36.634 150.72,36.148 C151.911,35.384 153.175,34.728 154.356,33.937 C155.129,33.421 155.894,33.404 156.313,34.003 C156.979,34.708 156.101,35.087 155.711,35.458 C153.947,37.442 152.056,39.284 149.987,40.933 C149.432,41.372 148.585,41.81 148.864,42.572 C149.188,43.549 150.329,43.06 150.819,43.06 C153.04,42.658 154.626,40.996 156.541,39.97 C156.976,39.736 157.331,39.144 157.865,39.54 C158.578,40.034 157.865,40.55 157.666,41.009 C156.187,44.861 153.386,45.833 150.458,46.327 L150.434,46.327 L150.434,46.33 L150.433,46.33 Z" id="Path" fill="#010101" fill-rule="nonzero"></path>
            <path d="M60.041,33.154 C59.322,37.056 59.59,41.299 59.915,45.363 C59.974,46.33 60.403,47.289 58.995,47.324 C57.897,47.793 57.405,46.818 57.405,45.592 C57.419,41.91 56.884,38.256 56.943,34.574 C56.964,33.25 56.601,31.943 56.832,30.568 C56.996,29.556 57.311,28.574 58.352,28.734 C59.309,28.734 60.305,29.718 60.305,30.691 C60.036,31.673 59.848,32.179 59.848,33.162 L60.041,33.162 L60.041,33.154 Z" id="Path" fill="#010101" fill-rule="nonzero"></path>
            <path d="M58.69,6.405 C59.571,6.405 60.644,6.893 60.155,7.87 C60.032,8.755 59.543,10.241 59.048,10.009 C58.066,9.568 56.94,8.651 56.789,7.389 C56.85,6.302 58.18,6.785 58.668,6.408 L58.691,6.408 L58.691,6.405 L58.69,6.405 Z" id="Path" fill="#010101" fill-rule="nonzero"></path>
            <path d="M87.154,42.623 C87.581,41.033 87.224,39.299 87.896,37.721 C88.314,36.742 88.505,35.565 89.972,35.518 C90.235,35.512 90.686,35.215 90.709,35.008 C90.784,34.201 90.606,33.346 91.948,33.783 C93.196,34.267 93.901,34.756 93.901,36.262 C94.093,38.754 90.686,43.336 88.213,44.037 C87.011,44.381 86.988,43.398 86.988,42.623 L87.154,42.623 L87.154,42.623 Z" id="Path"></path>
            <path d="M168.185,36.246 C167.572,36.1 166.829,36.453 166.695,35.592 C166.581,34.908 168.448,32.571 168.997,32.713 C170.173,33.211 170.467,34.184 170.467,35.109 C170.342,36.556 169.018,35.586 168.034,36.246 L168.185,36.246 Z" id="Path"></path>
        </g>
    </g>
</svg>